<svg viewBox="0 0 16 16" fill="none" xmlns="http://www.w3.org/2000/svg">
<path
  fill="currentColor"
  fill-rule="evenodd"
  clip-rule="evenodd"
  d="M8 16C3.58172 16 0 12.4183 0 8C0 3.58172 3.58172 0 8 0C12.4183 0 16 3.58172 16 8C16 12.4183 12.4183 16 8 16ZM8 10.4C8.60751 10.4 9.1 10.8925 9.1 11.5C9.1 12.1075 8.60751 12.6 8 12.6C7.39249 12.6 6.9 12.1075 6.9 11.5C6.9 10.8925 7.39249 10.4 8 10.4ZM8 3.5C8.51284 3.5 8.93551 3.88604 8.99327 4.38338L9 4.5V8C9 8.55229 8.55229 9 8 9C7.48716 9 7.06449 8.61396 7.00673 8.11662L7 8V4.5C7 3.94772 7.44772 3.5 8 3.5Z"/>
</svg>
