<svg viewBox="0 0 20 20" fill="none" xmlns="http://www.w3.org/2000/svg">
<path
  fill="currentColor"
  d="M10.5084 0.218832C10.3762 0.0791396 10.1924 4.76839e-07 10 0C9.8077 -4.76835e-07 9.62384 0.0791378 9.49163 0.218829L4.1916 5.81883C3.92585 6.09962 3.93805 6.54266 4.21883 6.80841C4.49961 7.07415 4.94266 7.06196 5.20841 6.78117L9.30001 2.45799L9.30001 13.3C9.30001 13.6866 9.61341 14 10 14C10.3866 14 10.7 13.6866 10.7 13.3L10.7 2.45795L14.7916 6.78117C15.0574 7.06196 15.5004 7.07415 15.7812 6.80841C16.062 6.54267 16.0742 6.09962 15.8084 5.81883L10.5084 0.218832Z"/>
<path
  fill="currentColor"
  d="M3.7 20C1.65655 20 0 18.3434 0 16.3V10.7C0 10.3134 0.3134 10 0.7 10C1.0866 10 1.4 10.3134 1.4 10.7L1.4 16.3C1.4 17.5702 2.42975 18.6 3.7 18.6L16.3 18.6C17.5706 18.6 18.6 17.5709 18.6 16.301V10.7C18.6 10.3134 18.9134 10 19.3 10C19.6866 10 20 10.3134 20 10.7V16.301C20 18.3447 18.3432 20 16.3 20H3.7Z"/>
</svg>
