<svg viewBox="0 0 20 20" fill="none" xmlns="http://www.w3.org/2000/svg">
<path d="M10 0C10.5523 0 11 0.447715 11 1C11 1.55228 10.5523 2 10 2C5.58172 2 2 5.58172 2 10C2 14.4183 5.58172 18 10 18C14.4183 18 18 14.4183 18 10C18 7.6949 17.0211 5.54994 15.3377 4.04091C14.9264 3.67227 14.8919 3.04005 15.2605 2.6288C15.6292 2.21755 16.2614 2.18302 16.6726 2.55165C18.7749 4.43617 20 7.1205 20 10C20 15.5228 15.5228 20 10 20C4.47715 20 0 15.5228 0 10C0 4.47715 4.47715 0 10 0Z" fill="url(#paint0_angular_4540_31158)"/>
<defs>
<radialGradient id="paint0_angular_4540_31158" cx="0" cy="0" r="1" gradientUnits="userSpaceOnUse" gradientTransform="translate(10 10) scale(10)">
<stop offset="0.760557" stop-color="#0BA2C4"/>
<stop offset="0.830606" stop-color="#02A7CC" stop-opacity="0.01"/>
</radialGradient>
</defs>
</svg>
